<?xml version="1.0" encoding="UTF-8" standalone="no"?><!-- Generator: Gravit.io --><svg xmlns="http://www.w3.org/2000/svg" xmlns:xlink="http://www.w3.org/1999/xlink" style="isolation:isolate" viewBox="0 0 1080 1080" width="1080pt" height="1080pt"><defs><clipPath id="_clipPath_M3iZpTsEnmsQfJNnh9UqlQVfhZoRAs9X"><rect width="1080" height="1080"/></clipPath></defs><g clip-path="url(#_clipPath_M3iZpTsEnmsQfJNnh9UqlQVfhZoRAs9X)"><rect width="1080" height="1080" style="fill:rgb(0,0,0)"/><path d=" M 572.746 145.757 Q 616.48 157.794 640.152 193.904 Q 649.161 205.915 656.293 230.509 Q 670.583 245.653 688.299 244.459 Q 677.526 249.166 660.778 247.899 Q 665.677 269.323 669.518 297.837 Q 681.767 308.775 697.929 304.642 Q 684.433 309.891 671.244 311.385 Q 671.347 312.217 671.448 313.068 Q 678.67 369.24 722.002 450.287 Q 739.255 473.96 770.149 496.027 Q 807.062 509.669 839.963 557.414 Q 858.82 598.741 844.777 635.653 L 831.537 626.024 Q 860.024 551.396 740.057 475.564 Q 706.354 455.904 676.263 390.103 Q 719.996 529.73 826.722 622.413 L 844.777 635.653 L 967.552 718.707 Q 1035.359 771.669 1043.384 818.612 Q 1052.788 860.816 1039.773 883.611 Q 1045.565 840.053 1021.718 804.168 Q 988.917 754.065 925.424 724.726 L 856.814 693.43 Q 825.669 675.676 778.575 630.839 Q 802.799 678.234 939.868 799.353 Q 976.379 820.217 1040.976 886.018 Q 1066.254 909.69 1078.29 948.609 Q 1083.908 985.923 1071.068 1016.015 Q 1077.488 982.713 1062.643 959.442 Q 1051.007 931.357 944.682 854.723 L 878.48 808.983 Q 916.195 862.747 936.257 916.11 Q 959.929 989.534 939.868 1043.7 Q 945.084 993.145 921.813 935.369 Q 902.955 886.018 864.036 843.889 Q 880.888 873.58 885.702 922.128 Q 890.517 967.868 876.073 996.756 L 876.073 999.275 Q 882.06 999.743 883.295 997.96 L 897.739 1009.997 L 900.146 1062.959 Q 906.616 1080.562 897.739 1083.421 L 900.146 1146.012 Q 897.759 1161.131 866.954 1178.223 L 866.954 1178.223 L 866.954 1178.223 Q 875.886 1190.879 890.517 1218.233 Q 894.429 1224.853 908.572 1247.121 L 909.776 1269.991 L 910.979 1294.064 L 912.183 1308.509 L 927.831 1333.786 Q 928.433 1337.096 921.813 1337.397 Q 922.941 1340.707 921.813 1342.212 Q 909.174 1338.3 903.757 1320.545 L 898.943 1313.323 L 860.425 1272.398 L 830.333 1242.306 Q 821.795 1232.733 818.296 1236.288 L 817.719 1245.532 L 870.054 1304.898 Q 1017.204 1472.209 1056.624 1576.928 Q 1102.966 1785.164 930.238 1888.681 Q 939.567 1829.4 897.739 1729.795 Q 881.489 1675.329 830.333 1609.428 Q 813.572 1589.971 797.789 1570.562 Q 775.258 1569.699 740.079 1598.577 Q 740.658 1602.502 741.261 1604.613 L 743.668 1622.668 Q 747.569 1632.141 750.438 1639.665 L 750.438 1639.665 Q 769.451 1639.509 791.815 1641.927 Q 820.102 1644.334 819.5 1693.685 Q 836.953 1693.083 832.74 1712.944 Q 839.06 1719.263 845.981 1761.091 Q 845.53 1763.574 838.759 1770.72 Q 836.276 1778.996 830.333 1787.572 Q 851.698 1841.135 862.832 2028.307 L 867.647 2128.212 Q 878.988 2143.315 879.684 2148.675 Q 877.502 2158.85 877.276 2166.73 Q 882.674 2172.955 878.48 2175.156 Q 884.799 2185.086 884.499 2195.618 L 890.517 2230.525 L 886.906 2232.932 Q 889.313 2238.048 904.961 2338.856 Q 906.165 2362.628 884.499 2379.781 Q 851.097 2395.128 809.871 2379.781 Q 801.746 2372.559 791.815 2354.503 Q 787.904 2345.476 789.408 2329.226 Q 790.461 2322.907 801.445 2291.912 Q 801.144 2270.397 803.852 2240.154 L 800.241 2237.747 Q 797.834 2229.772 796.63 2190.803 Q 795.577 2184.936 800.241 2181.174 Q 798.737 2175.156 789.408 2170.341 L 794.223 2136.638 Q 798.135 2117.68 735.243 1981.364 L 712.373 1915.162 Q 708.461 1910.347 691.91 1840.534 L 671.448 1828.497 Q 659.185 1823.005 655.8 1800.812 Q 656.552 1792.236 648.578 1767.109 Q 645.719 1764.326 630.523 1734.61 Q 624.961 1714.747 651.653 1682.297 Q 649.789 1675.409 648.578 1669.612 Q 640.536 1659.59 635.445 1651.502 L 635.338 1651.556 Q 561.387 1691.675 433.223 1673.41 Q 434.312 1680.281 435.455 1686.097 L 435.455 1686.097 L 466.823 1682.852 Q 483.072 1679.542 490.896 1732.203 Q 491.95 1744.841 512.563 1787.572 Q 518.13 1802.768 486.082 1826.089 Q 496.313 1877.998 483.674 1975.345 Q 465.318 2062.762 462.008 2123.398 Q 455.839 2172.447 474.045 2205.248 L 464.415 2224.506 Q 479.612 2286.646 464.415 2338.856 Q 446.36 2346.078 389.788 2341.263 L 388.584 2322.004 Q 383.769 2318.694 366.918 2344.874 Q 306.132 2352.999 198.403 2343.67 Q 192.347 2338.78 195.996 2318.393 Q 198.196 2306.676 210.44 2300.338 L 257.383 2289.505 L 273.031 2281.079 Q 276.774 2273.349 282.66 2276.264 Q 291.888 2265.431 330.807 2243.765 L 330.807 2240.154 L 363.307 2195.618 Q 369.475 2196.878 370.529 2190.803 Q 361.915 2176.754 376.547 2176.359 Q 373.444 2167.67 380.158 2166.73 Q 383.769 2149.427 372.936 2035.529 Q 366.165 2019.731 350.066 1875.44 Q 328.099 1873.033 315.16 1856.181 L 313.956 1803.22 L 299.512 1758.684 Q 301.905 1747.913 343.566 1707.394 L 342.844 1696.092 Q 325.09 1665.248 322.382 1629.89 L 322.195 1628.825 L 291.086 1614.242 Q 260.593 1590.57 187.57 1563.688 L 187.57 1563.688 L 187.57 1563.688 L 187.57 1563.688 L 187.434 1562.772 Q 147.486 1716.767 152.663 1851.367 Q 8.623 1814.454 1 1604.613 Q 2.806 1553.758 51.554 1481.838 L 146.645 1333.786 Q 170.417 1214.622 208.032 1191.752 L 209.676 1187.701 L 209.676 1187.701 L 209.676 1187.701 L 208.032 1189.345 Q 194.491 1172.794 187.57 1135.179 Q 182.454 1062.658 208.032 1001.571 L 208.662 999.263 L 201.487 988.331 L 200.81 988.331 Q 191.482 1000.067 163.496 1047.311 L 150.256 1085.828 Q 138.52 1124.346 150.256 1173.697 Q 136.414 1158.651 135.812 1105.087 Q 137.617 1058.746 187.57 977.498 L 187.57 976.476 Q 184.02 975.465 181.551 971.479 L 176.933 960.702 L 175.533 959.442 Q 169.515 967.266 163.496 1016.015 Q 159.283 1102.68 197.199 1146.012 Q 147.849 1120.735 135.812 1022.034 Q 132.803 932.36 177.94 864.352 L 179.082 863.781 Q 177.09 856.329 175.339 848.906 Q 98.484 929.001 87.665 970.276 Q 67.603 1015.614 79.239 1052.126 Q 62.388 1015.614 79.239 966.664 Q 85.257 930.153 139.423 854.723 L 168.311 818.612 L 169.048 817.876 Q 165.007 794.012 163.496 770.465 Q 161.045 760.898 159.056 752.248 Q 142.739 797.323 155.071 836.667 L 150.256 840.278 Q 133.602 782.735 154.567 730.775 Q 145.647 682.487 156.274 672.967 Q 167.91 639.666 241.735 606.765 L 252.568 598.339 Q 257.929 591.437 265.809 588.71 Q 274.724 570.222 288.679 570.655 L 290.255 570.43 L 291.086 569.451 Q 324.086 537.454 340.074 518.603 Q 339.99 513.721 341.64 511.675 L 350.016 505.812 Q 352.41 502.289 353.677 499.638 L 353.69 499.619 Q 354.397 476.565 371.446 473.507 L 374.14 469.546 Q 400.003 420.345 402.947 376.729 Q 375.849 365.783 368.121 335.938 Q 363.908 348.577 370.529 360.012 Q 360.598 354.294 354.881 328.716 Q 339.835 294.712 363.307 245.662 Q 341.941 251.38 328.4 238.44 Q 349.464 248.371 395.806 190.293 Q 417.773 159.599 448.768 150.572 Q 452.717 149.5 453.582 145.757 Q 433.063 152.904 418.676 137.331 Q 416.4 125.05 427.101 112.054 L 436.731 103.628 Q 441.677 91.328 453.582 80.759 Q 458.792 70.809 486.082 69.926 Q 497.441 66.465 502.933 75.944 Q 510.155 88.206 498.118 97.61 Q 495.786 102.65 472.841 98.814 Q 479.311 100.544 482.471 93.999 Q 479.386 96.105 471.638 93.999 Q 475.324 97.008 480.063 89.184 Q 480.891 83.768 471.638 83.166 Q 426.801 133.119 471.638 137.331 Q 483.674 123.64 502.933 137.331 Q 529.113 124.542 572.746 145.757 L 572.746 145.757 Z  M 403.239 371.731 Q 403.563 363.359 403.028 355.197 L 403.028 355.197 L 403.028 355.197 L 403.028 355.197 L 402.497 353.99 L 402.497 353.99 Q 399.136 351.353 395.806 347.975 Q 393.987 360.026 403.239 371.731 Z  M 790.965 1204.457 L 789.408 1204.992 Q 755.304 1213.017 729.224 1200.178 L 685.892 1125.55 Q 663.774 1097.414 695.521 1062.959 L 690.707 1043.7 L 693.114 1043.7 L 789.408 1213.418 L 792.889 1217.367 Q 791.731 1212.523 790.965 1204.457 L 790.965 1204.457 L 790.965 1204.457 L 790.965 1204.457 Z  M 232.066 1132.514 L 230.902 1132.772 Q 220.22 1098.918 230.902 1037.681 Q 202.616 1083.195 204.421 1150.827 Q 203.386 1171.454 210.198 1186.414 L 232.066 1132.514 L 232.066 1132.514 L 232.066 1132.514 L 232.066 1132.514 L 232.066 1132.514 L 232.066 1132.514 Z  M 870.384 997.218 L 870.054 996.756 Q 879.283 942.19 864.036 912.499 Q 859.823 980.507 849.592 993.145 L 849.222 994.441 Q 863.137 994.945 870.384 997.218 L 870.384 997.218 L 870.384 997.218 L 870.384 997.218 L 870.384 997.218 L 870.384 997.218 Z  M 665.838 984.808 Q 668.882 953.795 655.8 898.055 L 655.8 959.442 L 654.42 960.157 L 665.838 984.808 L 665.838 984.808 L 665.838 984.808 L 665.838 984.808 L 665.838 984.808 L 665.838 984.808 Z " fill-rule="evenodd" fill="rgb(185,28,28)"/></g></svg>